# xmcd
# Track frame offsets:
# 150
# 16509
# 33196
# 42682
# 62090
# 75629
# 91352
# 105042
# 113061
# 123261
# 139878
# 154639
#
# Disc length: 2208 seconds
# Revision: 0
# Processed by: cddbd v1.4PL0 Copyright (c) Steve Scherf et al.
# Submitted via: VisiTrax 2.9.3.171 - For more info visit www.synapsa.com
#
DISCID=87089e0c
DTITLE=Deadnecks - What was I thinkin'?
DYEAR=2002
DGENRE=Country-Rock
TTITLE0=What was I thinkin'?
TTITLE1=Two kinds of highway
TTITLE2=Anchor bar
TTITLE3=Rollin' on
TTITLE4=Ballad of Glen Rogers
TTITLE5=Too close to the flame
TTITLE6=You'll never know
TTITLE7=Miss Montana
TTITLE8=Jack, George, Early and Jim
TTITLE9=Sweet Roxanna
TTITLE10=I don't think so
TTITLE11=Broke down
EXTD=
EXTT0=
EXTT1=
EXTT2=
EXTT3=
EXTT4=
EXTT5=
EXTT6=
EXTT7=
EXTT8=
EXTT9=
EXTT10=
EXTT11=
PLAYORDER=
